<?xml version="1.0" standalone="no"?>
<!DOCTYPE svg PUBLIC "-//W3C//DTD SVG 20010904//EN"
 "http://www.w3.org/TR/2001/REC-SVG-20010904/DTD/svg10.dtd">
<svg version="1.0" xmlns="http://www.w3.org/2000/svg"
 width="283.000000pt" height="283.000000pt" viewBox="0 0 283.000000 283.000000"
 preserveAspectRatio="xMidYMid meet">

<g transform="translate(0.000000,283.000000) scale(0.100000,-0.100000)"
fill="#000000" stroke="none">
<path d="M1265 2806 c-197 -39 -363 -132 -522 -293 -82 -83 -181 -220 -230
-317 -24 -47 -24 -50 -4 -32 11 10 35 44 52 75 150 265 383 459 644 533 65 18
105 22 215 23 119 0 146 -4 233 -29 54 -16 101 -26 104 -23 7 8 -34 24 -122
49 -92 25 -276 32 -370 14z"/>
<path d="M1855 2745 c-33 -7 -87 -18 -120 -25 -185 -35 -553 -170 -735 -268
-253 -136 -446 -271 -670 -470 l-45 -40 50 -54 c28 -29 38 -42 22 -28 l-27 24
-85 -89 c-46 -49 -83 -91 -81 -93 3 -2 31 -6 63 -8 32 -3 72 -7 88 -9 17 -2
41 -4 55 -4 24 -1 27 -6 49 -116 13 -63 25 -115 26 -115 1 0 60 58 131 128 71
70 154 147 184 169 30 23 68 52 83 65 l29 23 -22 28 c-12 16 -21 29 -19 31 41
33 192 129 284 179 134 74 364 174 475 207 40 12 79 24 86 27 8 3 14 0 14 -5
0 -6 4 -22 9 -35 l10 -25 63 14 c198 44 256 54 371 65 70 7 127 16 127 19 0 3
-33 44 -74 90 -83 97 -84 71 6 209 27 40 47 75 46 77 -7 6 -224 -17 -240 -26
-16 -9 -18 -5 -18 30 0 40 0 40 -37 39 -21 -1 -65 -7 -98 -14z m163 -170 c-1
-31 -16 35 -16 70 0 25 2 24 9 -10 4 -22 8 -49 7 -60z m-194 -11 c46 -18 37
-83 -15 -104 -63 -26 -117 42 -70 89 21 21 55 27 85 15z m-136 -36 c38 -38 -5
-89 -94 -112 -73 -19 -77 -19 -69 -6 9 15 -14 40 -31 33 -17 -6 -19 -43 -1
-43 6 0 4 -5 -6 -11 -17 -10 -31 -8 -89 16 -13 5 -18 2 -18 -9 0 -9 7 -16 15
-16 20 0 19 -16 -1 -24 -24 -9 -46 -7 -39 4 8 13 -14 80 -26 80 -25 0 -4 20
30 30 50 13 73 5 66 -24 -4 -14 1 -25 14 -33 18 -12 21 -10 26 21 4 18 5 41 3
52 -2 13 4 20 20 22 12 2 22 -2 22 -8 0 -20 43 -70 61 -70 14 0 16 6 8 37 -4
21 -13 39 -18 41 -6 2 -11 7 -11 12 0 19 120 26 138 8z m339 -40 c-3 -8 -6 -5
-6 6 -1 11 2 17 5 13 3 -3 4 -12 1 -19z m10 -60 c-3 -7 -5 -2 -5 12 0 14 2 19
5 13 2 -7 2 -19 0 -25z m-723 -14 c23 -22 20 -51 -9 -79 -26 -27 -54 -31 -86
-15 -28 15 -26 74 3 94 29 20 72 20 92 0z m-146 -56 c18 -18 14 -66 -7 -87
-29 -29 -85 -57 -78 -39 6 18 -31 90 -43 83 -6 -4 -10 -1 -10 5 0 13 77 49
106 50 11 0 25 -5 32 -12z m-174 -91 c26 -19 18 -75 -15 -100 -22 -15 -33 -17
-55 -10 -24 8 -30 16 -32 45 -2 29 2 40 24 57 31 24 53 26 78 8z m-166 -79
c-3 -15 33 -78 44 -78 5 0 12 10 17 22 l8 22 12 -21 c15 -29 14 -36 -3 -30 -8
3 -22 -1 -33 -8 -24 -19 -33 -18 -33 1 0 8 -14 29 -30 46 -29 28 -30 31 -13
44 23 17 35 18 31 2z m-82 -57 c-3 -5 4 -22 16 -37 12 -16 23 -31 25 -33 5 -8
33 22 27 30 -3 5 -1 9 4 9 10 0 22 -23 22 -41 0 -6 -4 -8 -9 -5 -5 3 -20 -3
-34 -14 -29 -23 -39 -25 -35 -7 4 17 -32 67 -48 67 -19 0 -18 10 4 26 20 15
36 18 28 5z m-53 -45 c3 -8 -2 -16 -14 -19 -13 -3 -17 -10 -13 -22 6 -15 8
-15 24 0 13 12 20 13 25 5 4 -6 -1 -17 -10 -24 -16 -11 -16 -13 0 -26 14 -12
17 -10 22 8 3 12 9 22 13 22 7 0 24 -32 18 -34 -2 -1 -17 -9 -35 -18 -35 -20
-44 -22 -40 -9 4 14 -43 72 -54 66 -19 -13 -8 11 19 37 31 31 38 33 45 14z
m-73 -81 c0 -8 -8 -11 -20 -8 -11 3 -20 1 -20 -5 0 -6 17 -12 38 -14 32 -3 37
-7 40 -30 2 -16 -1 -28 -7 -28 -6 0 -11 -7 -11 -17 0 -14 -2 -14 -21 3 l-21
19 23 5 c38 9 35 30 -5 30 -43 0 -55 19 -36 56 10 18 16 21 27 13 7 -6 13 -17
13 -24z m190 -129 c0 -2 -8 -10 -17 -17 -16 -13 -17 -12 -4 4 13 16 21 21 21
13z m-400 -61 c11 -13 10 -14 -4 -9 -9 3 -16 10 -16 15 0 13 6 11 20 -6z m35
-35 c3 -5 2 -10 -4 -10 -5 0 -13 5 -16 10 -3 6 -2 10 4 10 5 0 13 -4 16 -10z
m30 -40 c10 -11 16 -20 13 -20 -3 0 -13 9 -23 20 -10 11 -16 20 -13 20 3 0 13
-9 23 -20z m66 -67 c13 -16 12 -17 -3 -4 -10 7 -18 15 -18 17 0 8 8 3 21 -13z"/>
<path d="M1759 2541 c-26 -21 -21 -43 14 -65 42 -27 72 43 31 71 -19 12 -24
11 -45 -6z"/>
<path d="M1605 2519 c-11 -18 5 -79 20 -79 17 0 55 35 55 49 0 30 -61 54 -75
30z"/>
<path d="M1480 2470 c0 -5 5 -10 11 -10 5 0 7 5 4 10 -3 6 -8 10 -11 10 -2 0
-4 -4 -4 -10z"/>
<path d="M1364 2444 c3 -9 6 -17 6 -20 0 -2 7 -1 15 2 23 9 18 34 -6 34 -15 0
-19 -4 -15 -16z"/>
<path d="M1227 2403 c-11 -11 -8 -48 5 -61 18 -18 56 -15 66 6 16 29 -3 62
-36 62 -16 0 -32 -3 -35 -7z"/>
<path d="M1090 2340 c-12 -8 -12 -13 3 -44 19 -40 28 -44 51 -20 41 40 -5 95
-54 64z"/>
<path d="M920 2240 c-24 -24 -14 -54 20 -65 44 -14 71 53 31 75 -26 13 -28 13
-51 -10z"/>
<path d="M2300 2198 c217 -417 249 -910 89 -1365 -139 -393 -418 -679 -754
-775 -115 -32 -315 -32 -430 0 -520 148 -876 741 -852 1417 3 83 9 158 13 169
5 14 3 17 -7 14 -36 -12 -36 -367 0 -565 128 -693 644 -1159 1191 -1073 202
32 383 130 547 297 277 282 430 719 410 1173 -13 283 -98 584 -220 778 -53 83
-45 40 13 -70z"/>
<path d="M1988 2283 c-14 -4 -10 -14 26 -63 98 -133 187 -349 222 -540 25
-132 25 -418 0 -550 -54 -296 -205 -572 -393 -721 -432 -344 -979 -103 -1187
521 -53 158 -69 269 -70 462 l-1 167 -22 -21 c-21 -20 -23 -30 -23 -127 1
-394 137 -751 372 -977 97 -93 189 -151 303 -190 71 -25 94 -28 205 -28 111 0
134 3 205 28 264 91 482 334 593 661 60 176 76 278 76 500 0 169 -4 216 -23
305 -40 190 -103 347 -196 490 -47 73 -63 88 -87 83z"/>
<path d="M1495 1990 c-64 -40 -68 -53 -31 -97 12 -15 44 -81 71 -146 41 -102
46 -122 36 -143 -14 -31 -14 -89 -1 -114 7 -13 5 -21 -6 -31 -22 -18 -39 -56
-54 -116 l-12 -52 -186 -123 c-254 -169 -274 -179 -311 -172 -26 5 -36 1 -69
-32 -22 -22 -54 -47 -71 -56 -17 -10 -34 -25 -38 -35 -3 -10 -15 -26 -27 -35
l-21 -17 29 -28 c16 -15 25 -22 21 -15 -6 11 -3 11 13 1 30 -19 34 -8 17 41
-14 39 -14 45 1 62 23 24 34 23 34 -4 0 -29 15 -52 28 -44 5 3 12 -5 16 -17 3
-13 12 -24 20 -24 8 0 12 5 8 11 -7 12 -4 155 4 168 3 4 12 8 21 8 13 0 13 -3
3 -16 -24 -28 -16 -98 19 -169 32 -64 105 -151 146 -173 12 -7 14 -12 6 -12
-11 0 -11 -3 -1 -15 17 -21 3 -19 -30 5 -16 12 -36 18 -47 14 -12 -4 -14 -3
-5 3 9 7 6 15 -13 33 -19 18 -24 20 -19 7 3 -9 11 -17 17 -17 6 0 7 -3 4 -7
-4 -3 -21 7 -38 23 -27 25 -30 26 -20 6 7 -12 10 -26 7 -31 -8 -12 48 -87 75
-102 16 -8 18 -13 9 -19 -19 -11 -55 4 -104 45 -49 40 -64 45 -43 14 8 -11 13
-28 10 -38 -2 -10 5 -34 17 -54 l22 -37 28 20 c15 11 37 20 48 20 24 0 48 21
57 50 3 11 12 20 19 20 7 0 25 9 40 21 19 15 26 30 26 57 0 36 6 41 198 194
108 87 212 171 230 187 30 27 36 29 95 24 34 -3 74 -12 89 -19 15 -8 33 -14
40 -14 7 0 54 24 103 53 80 47 91 57 99 90 8 30 5 47 -13 91 -17 43 -20 59
-12 75 18 32 13 68 -14 99 -14 17 -25 41 -25 55 0 13 -7 30 -15 37 -8 7 -15
22 -15 35 0 12 -9 30 -20 40 -11 10 -20 26 -20 35 0 25 -35 52 -62 49 -14 -2
-38 8 -59 24 -20 15 -48 27 -62 27 -22 0 -36 16 -97 115 -39 63 -73 120 -74
127 -11 62 -36 72 -91 38z m65 -26 c0 -9 -17 -21 -64 -42 -16 -8 6 43 27 61
16 14 22 15 28 5 5 -7 9 -18 9 -24z m22 -51 c9 -10 39 -60 68 -111 38 -68 49
-97 41 -105 -7 -7 -17 -5 -32 9 l-22 19 13 -25 c8 -17 1 -12 -23 15 -46 52
-109 189 -94 204 16 16 32 14 49 -6z m-37 -113 c22 -43 18 -61 -5 -20 -11 19
-19 38 -20 43 0 15 10 6 25 -23z m35 -84 c0 -8 7 -19 15 -26 8 -7 12 -17 8
-23 -3 -5 -14 5 -24 24 -21 39 -24 53 -9 44 6 -3 10 -12 10 -19z m186 -36 c26
-10 53 -37 54 -53 0 -5 -4 -5 -10 -2 -5 3 -10 -2 -10 -12 0 -15 -2 -16 -10 -3
-13 20 -3 -46 12 -76 7 -15 7 -28 -1 -42 -11 -20 -12 -20 -66 10 -30 16 -59
27 -64 24 -5 -3 -14 1 -21 9 -8 9 -8 15 -2 15 6 0 17 6 24 14 23 23 78 47 90
40 6 -4 8 -3 4 4 -3 6 3 13 14 17 11 3 20 11 20 16 0 14 -15 11 -41 -10 -32
-25 -85 -51 -103 -51 -10 0 -13 10 -11 36 2 20 5 37 7 39 11 9 65 34 75 35 6
0 24 -5 39 -10z m147 -66 c3 -16 -4 -32 -24 -52 -38 -39 -24 -50 15 -11 28 28
32 29 43 13 7 -10 13 -26 13 -35 0 -20 -69 -81 -82 -73 -4 3 -8 1 -8 -4 0 -12
-34 -11 -42 2 -12 17 -10 24 12 46 23 23 19 40 -11 40 -28 0 -24 30 11 72 34
41 65 42 73 2z m-309 -19 c-4 -8 -10 -15 -15 -15 -4 0 -6 7 -3 15 4 8 10 15
15 15 4 0 6 -7 3 -15z m-17 -47 c-3 -8 -6 -5 -6 6 -1 11 2 17 5 13 3 -3 4 -12
1 -19z m21 -45 c2 -20 -1 -24 -9 -16 -7 7 -9 19 -6 27 9 23 12 20 15 -11z
m122 -20 c29 -20 40 -34 34 -44 -2 -4 4 -5 14 -2 10 2 26 -5 36 -16 38 -42
-23 -62 -86 -29 -10 5 -21 20 -24 33 -3 14 -10 23 -14 20 -5 -3 -11 -1 -15 5
-15 25 -22 7 -7 -19 15 -28 15 -32 -1 -65 -10 -21 -24 -36 -34 -36 -17 -1 -17
-1 0 -11 9 -5 17 -16 17 -22 0 -7 9 -20 20 -30 22 -19 25 -42 10 -83 -14 -35
1 -51 25 -28 17 17 18 17 32 -2 37 -51 21 -94 -32 -88 -31 3 -95 -39 -173
-115 -53 -52 -142 -126 -258 -214 -88 -68 -104 -77 -125 -68 -60 22 -139 146
-147 230 l-4 46 64 34 c34 19 139 86 232 149 94 63 175 116 182 119 9 3 11 -3
7 -19 -6 -23 -6 -23 15 2 11 14 25 52 31 83 6 32 18 74 27 93 21 45 84 87 139
93 6 0 22 -7 35 -16z m258 -21 c5 -34 -51 -87 -93 -90 -29 -2 -34 0 -28 15 8
25 93 105 107 100 6 -2 12 -13 14 -25z m42 -67 c18 -21 5 -60 -25 -73 -20 -9
-25 -9 -25 3 0 7 -4 16 -9 19 -4 3 -6 -6 -3 -19 4 -21 1 -24 -14 -18 -11 4
-25 13 -32 20 -11 11 -10 13 4 13 10 0 15 3 11 6 -7 7 54 63 69 64 6 0 17 -7
24 -15z m-270 -50 c6 4 18 1 27 -7 9 -7 14 -8 10 -2 -11 18 45 25 64 8 9 -8
18 -11 22 -8 3 4 12 -5 18 -20 13 -28 45 -42 77 -32 16 5 24 -2 39 -33 l20
-41 -24 -15 c-13 -9 -21 -21 -17 -27 5 -7 2 -8 -6 -3 -8 5 -18 1 -27 -11 -14
-19 -14 -19 -29 0 -8 11 -14 14 -14 7 0 -7 -4 -10 -9 -7 -5 4 -11 1 -13 -5 -2
-6 -21 5 -42 26 -21 20 -36 38 -34 39 1 2 12 9 23 15 l20 13 -20 -7 c-45 -16
-55 -17 -55 -6 0 6 5 11 10 11 12 0 -39 78 -64 99 -9 8 -16 19 -16 25 0 6 7 3
15 -8 7 -10 19 -15 25 -11z m-65 -26 c-4 -5 1 -9 9 -9 9 0 13 -6 10 -14 -3 -7
7 -27 21 -45 15 -17 24 -31 20 -31 -3 0 1 -10 9 -22 18 -26 20 -38 6 -38 -10
0 -90 151 -90 170 0 6 5 8 10 5 6 -4 8 -11 5 -16z m341 -178 c0 -15 -3 -17
-13 -9 -10 8 -12 7 -7 -5 4 -11 -14 -27 -66 -57 -39 -24 -73 -40 -76 -37 -3 3
4 8 16 12 12 4 19 13 17 20 -3 7 -1 17 5 23 7 7 7 16 -1 29 -6 10 -11 13 -11
5 0 -7 -5 -10 -11 -6 -8 4 -3 11 12 20 25 13 39 10 39 -7 0 -6 -4 -7 -10 -4
-5 3 -10 1 -10 -4 0 -16 14 -13 42 9 14 10 28 17 31 14 4 -4 31 6 42 16 1 0 1
-9 1 -19z m-215 -7 c19 -17 14 -54 -7 -54 -17 0 -37 37 -30 56 7 18 15 18 37
-2z m-46 -74 c3 -5 2 -10 -4 -10 -5 0 -13 5 -16 10 -3 6 -2 10 4 10 5 0 13 -4
16 -10z"/>
<path d="M1769 1318 c6 -7 22 -26 36 -43 25 -30 25 -30 -2 13 -14 23 -30 42
-35 42 -5 0 -4 -6 1 -12z"/>
<path d="M1862 1217 l-23 -13 23 -21 23 -21 20 20 20 21 -23 -13 c-26 -13 -45
-4 -22 10 8 6 11 10 5 10 -5 0 -3 5 5 10 22 14 -1 11 -28 -3z"/>
</g>
</svg>
